<svg width="71" height="20" viewBox="0 0 71 20" fill="none" xmlns="http://www.w3.org/2000/svg">
<path d="M4.50293 17.6602C5.45199 17.6602 6.2854 17.401 7.00317 16.8826C7.72892 16.3562 8.19548 15.6504 8.40283 14.7651V12.552C8.36296 12.552 8.11971 12.5719 7.6731 12.6118C7.23446 12.6517 6.94735 12.6756 6.81177 12.6836C5.08114 12.8351 3.87288 13.1182 3.18701 13.533C2.50911 13.9477 2.17017 14.6136 2.17017 15.5308C2.17017 16.2326 2.37752 16.7629 2.79224 17.1218C3.20695 17.4807 3.77718 17.6602 4.50293 17.6602ZM8.84546 19C8.72583 18.4896 8.61019 17.9393 8.49854 17.3491C7.77279 18.0749 7.0909 18.5773 6.45288 18.8564C5.81486 19.1356 5.06519 19.2751 4.20386 19.2751C2.97567 19.2751 1.98674 18.9561 1.23706 18.3181C0.495361 17.6721 0.124512 16.747 0.124512 15.5427C0.124512 14.2029 0.630941 13.21 1.6438 12.564C2.66463 11.918 4.13208 11.5152 6.04614 11.3557C6.30933 11.3318 6.7041 11.2999 7.23047 11.26C7.76481 11.2122 8.16357 11.1763 8.42676 11.1523V9.99194C8.42676 9.06681 8.21143 8.38094 7.78076 7.93433C7.3501 7.48771 6.6722 7.2644 5.74707 7.2644C4.45508 7.2644 3.15112 7.58341 1.83521 8.22144C1.79533 8.12573 1.69165 7.85059 1.52417 7.396C1.35669 6.93343 1.26896 6.69417 1.26099 6.67822C1.84318 6.35124 2.53304 6.09204 3.33057 5.90063C4.13607 5.70125 4.95353 5.60156 5.78296 5.60156C7.41789 5.60156 8.59424 5.96045 9.31201 6.67822C10.0378 7.38802 10.4006 8.60026 10.4006 10.3149V19H8.84546ZM13.3914 14.6216V5.87671H15.4011V14.6455C15.4011 15.2197 15.4809 15.7062 15.6404 16.105C15.8079 16.5037 16.0431 16.8148 16.3462 17.0381C16.6572 17.2534 17.0042 17.4089 17.387 17.5046C17.7778 17.6003 18.2244 17.6482 18.7268 17.6482C19.7636 17.6482 20.5691 17.4209 21.1433 16.9663C21.7255 16.5117 22.0166 15.7381 22.0166 14.6455V5.87671H24.0264V14.6216C24.0264 15.2915 23.9307 15.8936 23.7393 16.428C23.5479 16.9623 23.2887 17.4089 22.9617 17.7678C22.6427 18.1187 22.2559 18.4098 21.8013 18.6411C21.3467 18.8724 20.8642 19.0399 20.3538 19.1436C19.8513 19.2472 19.309 19.2991 18.7268 19.2991C18.1526 19.2991 17.6103 19.2472 17.0999 19.1436C16.5894 19.0399 16.1029 18.8724 15.6404 18.6411C15.1858 18.4019 14.791 18.1068 14.4561 17.7559C14.1291 17.397 13.8699 16.9504 13.6785 16.416C13.4871 15.8817 13.3914 15.2835 13.3914 14.6216ZM31.1921 19.2393C29.9001 19.2393 28.983 18.9242 28.4407 18.2942C27.8984 17.6641 27.6112 16.6473 27.5793 15.2437V7.36011H25.6294L25.7131 6.04419L27.5674 5.87671L28.2493 2.87402L29.5652 2.82617V5.87671H33.2139V7.36011H29.5652V14.8848C29.5652 15.8817 29.7167 16.5835 30.0198 16.9902C30.3228 17.397 30.8412 17.6003 31.575 17.6003C31.8381 17.6003 32.4084 17.5365 33.2856 17.4089L33.3694 18.988C32.4203 19.1555 31.6946 19.2393 31.1921 19.2393ZM44.3394 19V11.0686C44.3394 9.75269 44.128 8.79565 43.7053 8.19751C43.2906 7.59937 42.5609 7.30029 41.5161 7.30029C40.5112 7.30029 39.6619 7.55151 38.968 8.05396C38.2821 8.5564 37.8355 9.20638 37.6282 10.0039C37.5564 10.6021 37.5205 11.268 37.5205 12.0017V19H35.5227V0.780518L37.5205 0.660889V5.99634C37.5205 6.45093 37.5046 7.01318 37.4727 7.68311C38.5972 6.29541 40.0885 5.60156 41.9468 5.60156C44.8737 5.60156 46.3372 7.32023 46.3372 10.7576V19H44.3394ZM50.261 12.4683C50.261 14.0234 50.6039 15.2716 51.2898 16.2126C51.9836 17.1458 52.9925 17.6123 54.3164 17.6123C55.6243 17.6123 56.6093 17.1458 57.2712 16.2126C57.9412 15.2795 58.2761 14.0234 58.2761 12.4443C58.2761 10.8413 57.9451 9.58122 57.2832 8.66406C56.6292 7.73893 55.6283 7.27637 54.2805 7.27637C52.9726 7.27637 51.9757 7.74691 51.2898 8.68799C50.6039 9.62907 50.261 10.8892 50.261 12.4683ZM60.3457 12.4324C60.3457 14.4661 59.8034 16.1169 58.7188 17.385C57.6341 18.6451 56.1348 19.2751 54.2207 19.2751C52.3784 19.2751 50.911 18.6371 49.8184 17.3611C48.7337 16.085 48.1914 14.4461 48.1914 12.4443C48.1914 10.4027 48.7377 8.75179 49.8303 7.4917C50.9229 6.23161 52.4223 5.60156 54.3284 5.60156C56.2026 5.60156 57.674 6.2356 58.7427 7.50366C59.8114 8.76375 60.3457 10.4067 60.3457 12.4324ZM69.0667 5.75708C69.4255 5.75708 69.7525 5.78101 70.0476 5.82886L69.9758 7.67114C69.609 7.60734 69.29 7.57544 69.0188 7.57544C67.9023 7.57544 66.9931 7.96623 66.2913 8.7478C65.5974 9.5214 65.2505 10.4824 65.2505 11.6309V19H63.2527C63.2447 10.945 63.2407 6.57056 63.2407 5.87671H64.9036L65.095 8.2334C65.5496 7.4917 66.1278 6.89355 66.8296 6.43896C67.5314 5.98438 68.2771 5.75708 69.0667 5.75708Z" fill="white"/>
</svg>
