<svg width="155" height="44" viewBox="0 0 155 44" fill="none" xmlns="http://www.w3.org/2000/svg">
<path d="M16.3365 20.2155C16.3365 18.8808 16.1545 17.9253 15.7905 17.349C15.4265 16.7727 14.8502 16.4238 14.0615 16.3025C13.2728 16.1812 12.2263 16.1508 10.922 16.2115L7.6005 16.348V26.7675C7.6005 27.5865 7.58533 28.2842 7.555 28.8605C7.555 29.4368 7.52467 29.9222 7.464 30.3165L16.1545 30.18C17.4892 30.1497 18.6418 29.9373 19.6125 29.543C20.5832 29.1183 21.3415 28.3903 21.8875 27.359C22.4335 26.3277 22.7065 24.9172 22.7065 23.1275H24.2535L23.9805 32H0.5025V30.4985C1.65517 30.4378 2.44383 30.18 2.8685 29.725C3.29317 29.2397 3.52067 28.5875 3.551 27.7685C3.61167 26.9192 3.642 25.9637 3.642 24.902V5.246C3.642 4.63933 3.65717 4.063 3.6875 3.517C3.71783 2.94066 3.74817 2.425 3.7785 1.97C3.2325 2.00033 2.6865 2.03066 2.1405 2.061C1.5945 2.09133 1.0485 2.12167 0.5025 2.152V0.149998H22.388L22.6155 8.1125H21.114C21.114 6.32283 20.841 4.973 20.295 4.063C19.749 3.12267 19.0058 2.50083 18.0655 2.1975C17.1555 1.86383 16.1242 1.71217 14.9715 1.7425L11.0585 1.8335C9.93617 1.86383 9.13233 2.07616 8.647 2.4705C8.16167 2.86483 7.85833 3.45633 7.737 4.245C7.646 5.00333 7.6005 6.00433 7.6005 7.248V14.528L16.1545 14.5735L15.836 10.6605H17.838V20.2155H16.3365ZM37.6337 32.728C36.117 32.728 34.7672 32.5157 33.5842 32.091C32.4012 31.6967 31.4305 31.2417 30.6722 30.726L30.8542 32.3185H28.9432L28.6702 24.4925H30.0807C30.1414 25.7362 30.4902 26.8585 31.1272 27.8595C31.7642 28.8302 32.5832 29.5885 33.5842 30.1345C34.5852 30.6805 35.662 30.9535 36.8147 30.9535C37.6034 30.9535 38.3769 30.8322 39.1352 30.5895C39.8935 30.3165 40.5305 29.9222 41.0462 29.4065C41.5619 28.8605 41.8197 28.178 41.8197 27.359C41.8197 26.5097 41.5619 25.812 41.0462 25.266C40.5609 24.6897 39.9087 24.1892 39.0897 23.7645C38.2707 23.3398 37.391 22.9455 36.4507 22.5815C35.5407 22.2175 34.6307 21.8383 33.7207 21.444C32.8107 21.0497 31.9614 20.5795 31.1727 20.0335C30.4144 19.4875 29.8077 18.8202 29.3527 18.0315C28.8977 17.2428 28.6702 16.2722 28.6702 15.1195C28.6702 14.4825 28.7915 13.7848 29.0342 13.0265C29.2769 12.2682 29.6864 11.5553 30.2627 10.888C30.839 10.1903 31.6277 9.62917 32.6287 9.2045C33.6297 8.7495 34.9037 8.522 36.4507 8.522C37.2697 8.522 38.1797 8.6585 39.1807 8.9315C40.1817 9.2045 41.1524 9.72017 42.0927 10.4785L42.0017 8.7495H43.9127V16.712H42.4567C42.396 15.6503 42.1534 14.6342 41.7287 13.6635C41.304 12.6625 40.6822 11.8435 39.8632 11.2065C39.0442 10.5392 37.9825 10.2055 36.6782 10.2055C35.2829 10.2055 34.1909 10.5543 33.4022 11.252C32.6135 11.9497 32.2192 12.7535 32.2192 13.6635C32.2192 14.6038 32.5074 15.3925 33.0837 16.0295C33.6904 16.6362 34.4639 17.167 35.4042 17.622C36.3445 18.077 37.3455 18.5168 38.4072 18.9415C39.5599 19.4268 40.6822 19.9577 41.7742 20.534C42.8662 21.1103 43.761 21.8383 44.4587 22.718C45.1564 23.5673 45.5052 24.6745 45.5052 26.0395C45.5052 27.5562 45.1109 28.815 44.3222 29.816C43.5639 30.817 42.578 31.545 41.3647 32C40.1817 32.4853 38.938 32.728 37.6337 32.728ZM60.4697 32.728C58.4374 32.728 56.5567 32.273 54.8277 31.363C53.1291 30.4227 51.7641 29.088 50.7327 27.359C49.7317 25.5997 49.2312 23.4915 49.2312 21.0345C49.2312 19.4572 49.5194 17.9253 50.0957 16.439C50.6721 14.9527 51.4759 13.618 52.5072 12.435C53.5689 11.2217 54.8277 10.2662 56.2837 9.5685C57.7397 8.87083 59.3474 8.522 61.1067 8.522C62.8054 8.522 64.2766 8.77983 65.5202 9.2955C66.7942 9.81117 67.7801 10.4937 68.4777 11.343C69.1754 12.1923 69.5242 13.1175 69.5242 14.1185C69.5242 14.7858 69.3422 15.3622 68.9782 15.8475C68.6142 16.3025 68.0834 16.53 67.3857 16.53C66.6274 16.5603 66.0814 16.3328 65.7477 15.8475C65.4444 15.3318 65.2927 14.8768 65.2927 14.4825C65.2927 14.1792 65.3382 13.8758 65.4292 13.5725C65.5202 13.2388 65.7022 12.9355 65.9752 12.6625C65.7326 11.9345 65.3079 11.4037 64.7012 11.07C64.0946 10.706 63.4576 10.4785 62.7902 10.3875C62.1532 10.2662 61.6224 10.2055 61.1977 10.2055C59.1351 10.2055 57.3909 11.0397 55.9652 12.708C54.5699 14.346 53.8722 16.7423 53.8722 19.897C53.8722 21.9293 54.1907 23.7342 54.8277 25.3115C55.4951 26.8888 56.4202 28.1325 57.6032 29.0425C58.7862 29.9222 60.1512 30.362 61.6982 30.362C63.1239 30.362 64.4889 29.9828 65.7932 29.2245C67.0976 28.4662 68.1137 27.541 68.8417 26.449L70.0247 27.359C69.2361 28.633 68.2806 29.6643 67.1582 30.453C66.0662 31.2417 64.9287 31.818 63.7457 32.182C62.5931 32.546 61.5011 32.728 60.4697 32.728ZM87.3272 32C87.2362 31.4843 87.1755 31.0293 87.1452 30.635C87.1148 30.2407 87.0693 29.8312 87.0087 29.4065C85.9773 30.4378 84.855 31.2568 83.6417 31.8635C82.4587 32.4398 81.1998 32.728 79.8652 32.728C77.5598 32.728 75.846 32.2123 74.7237 31.181C73.6013 30.1193 73.0402 28.8302 73.0402 27.3135C73.0402 25.9182 73.4648 24.72 74.3142 23.719C75.1938 22.6877 76.3162 21.8535 77.6812 21.2165C79.0765 20.5492 80.578 20.0638 82.1857 19.7605C83.8237 19.4268 85.401 19.2752 86.9177 19.3055V16.4845C86.9177 15.4228 86.8267 14.4218 86.6447 13.4815C86.4627 12.5412 86.0683 11.7677 85.4617 11.161C84.855 10.5543 83.8843 10.2358 82.5497 10.2055C81.67 10.1752 80.76 10.342 79.8197 10.706C78.9097 11.07 78.2423 11.6918 77.8177 12.5715C78.0603 12.8142 78.212 13.1023 78.2727 13.436C78.3637 13.7393 78.4092 14.0275 78.4092 14.3005C78.4092 14.6645 78.2575 15.0892 77.9542 15.5745C77.6508 16.0295 77.12 16.2418 76.3617 16.2115C75.7247 16.2115 75.2393 15.9992 74.9057 15.5745C74.572 15.1195 74.4052 14.5887 74.4052 13.982C74.4052 12.9507 74.7843 12.0255 75.5427 11.2065C76.3313 10.3875 77.4082 9.73533 78.7732 9.25C80.1382 8.76467 81.6852 8.522 83.4142 8.522C85.9622 8.522 87.8428 9.2045 89.0562 10.5695C90.2695 11.9042 90.861 14.0275 90.8307 16.9395C90.8307 18.0618 90.8307 19.1993 90.8307 20.352C90.8307 21.4743 90.8155 22.6118 90.7852 23.7645C90.7852 24.8868 90.7852 26.0243 90.7852 27.177C90.7852 27.6623 90.77 28.1477 90.7397 28.633C90.7093 29.1183 90.6638 29.6643 90.6032 30.271C91.1492 30.2407 91.68 30.2103 92.1957 30.18C92.7417 30.1497 93.2877 30.1193 93.8337 30.089V32H87.3272ZM86.9177 20.8525C85.8863 20.8828 84.7943 21.0193 83.6417 21.262C82.5193 21.4743 81.4728 21.808 80.5022 22.263C79.5618 22.718 78.7883 23.3247 78.1817 24.083C77.6053 24.811 77.3323 25.7058 77.3627 26.7675C77.4233 27.8898 77.7873 28.7392 78.4547 29.3155C79.1523 29.8615 79.9713 30.1345 80.9117 30.1345C82.1553 30.1345 83.2322 29.907 84.1422 29.452C85.0825 28.9667 86.0077 28.2993 86.9177 27.45C86.8873 27.1163 86.8722 26.7523 86.8722 26.358C86.8722 25.9637 86.8722 25.5542 86.8722 25.1295C86.8722 24.9778 86.8722 24.4925 86.8722 23.6735C86.9025 22.8545 86.9177 21.9142 86.9177 20.8525ZM96.5466 43.6025V42.2375C97.4869 42.2375 98.1391 41.9948 98.5031 41.5095C98.8671 41.0545 99.0794 40.4023 99.1401 39.553C99.2008 38.734 99.2311 37.7785 99.2311 36.6865L99.3221 14.71C99.3221 14.2247 99.3221 13.7393 99.3221 13.254C99.3524 12.7687 99.4131 12.2682 99.5041 11.7525C98.9581 11.7828 98.4121 11.8132 97.8661 11.8435C97.3504 11.8738 96.8196 11.9042 96.2736 11.9345V10.0235C97.6083 10.0235 98.6093 9.96283 99.2766 9.8415C99.9743 9.72017 100.475 9.5685 100.778 9.3865C101.112 9.2045 101.385 9.00733 101.597 8.795H102.962C102.992 9.09833 103.023 9.46233 103.053 9.887C103.083 10.2813 103.114 10.7363 103.144 11.252C104.054 10.433 105.131 9.78083 106.375 9.2955C107.649 8.77983 108.923 8.522 110.197 8.522C111.956 8.522 113.594 8.977 115.111 9.887C116.627 10.797 117.856 12.1013 118.796 13.8C119.736 15.4683 120.207 17.4703 120.207 19.806C120.207 22.3843 119.661 24.6442 118.569 26.5855C117.507 28.5268 116.096 30.0435 114.337 31.1355C112.578 32.1972 110.667 32.728 108.604 32.728C107.542 32.728 106.557 32.5915 105.647 32.3185C104.767 32.0758 103.933 31.7118 103.144 31.2265V38.7795C103.144 39.3862 103.129 39.917 103.099 40.372C103.099 40.8573 103.053 41.3578 102.962 41.8735C103.447 41.8432 103.918 41.8128 104.373 41.7825C104.858 41.7825 105.343 41.7673 105.829 41.737V43.6025H96.5466ZM108.513 30.908C109.969 30.908 111.213 30.4682 112.244 29.5885C113.306 28.6785 114.11 27.45 114.656 25.903C115.232 24.3257 115.52 22.536 115.52 20.534C115.52 18.896 115.277 17.3338 114.792 15.8475C114.337 14.3308 113.594 13.1023 112.563 12.162C111.562 11.2217 110.227 10.7515 108.559 10.7515C107.527 10.7515 106.526 11.0093 105.556 11.525C104.615 12.0103 103.827 12.6018 103.19 13.2995C103.19 13.4208 103.19 13.6028 103.19 13.8455C103.22 14.0578 103.235 14.4522 103.235 15.0285C103.235 15.5745 103.235 16.4087 103.235 17.531C103.235 18.623 103.22 20.1093 103.19 21.99C103.19 23.8707 103.19 26.2518 103.19 29.1335C103.948 29.7098 104.767 30.1497 105.647 30.453C106.557 30.7563 107.512 30.908 108.513 30.908ZM135.116 32.728C133.023 32.728 131.127 32.2427 129.429 31.272C127.76 30.271 126.441 28.8757 125.47 27.086C124.499 25.266 124.014 23.1275 124.014 20.6705C124.014 18.5472 124.484 16.5603 125.425 14.71C126.395 12.8597 127.745 11.3733 129.474 10.251C131.203 9.09833 133.205 8.522 135.48 8.522C136.754 8.522 137.937 8.73433 139.029 9.159C140.151 9.55333 141.137 10.1752 141.987 11.0245C142.836 11.8435 143.503 12.89 143.989 14.164C144.474 15.4077 144.717 16.8788 144.717 18.5775L128.701 18.8505C128.701 21.1558 128.943 23.1882 129.429 24.9475C129.944 26.6765 130.763 28.0263 131.886 28.997C133.008 29.9373 134.449 30.4075 136.208 30.4075C137.148 30.4075 138.104 30.2407 139.075 29.907C140.076 29.5733 141.001 29.1183 141.85 28.542C142.699 27.9657 143.382 27.3287 143.898 26.631L144.99 27.541C144.171 28.815 143.185 29.8312 142.032 30.5895C140.879 31.3478 139.696 31.8938 138.483 32.2275C137.27 32.5612 136.147 32.728 135.116 32.728ZM128.837 16.9395H140.44C140.44 15.8475 140.273 14.801 139.939 13.8C139.636 12.7687 139.12 11.9345 138.392 11.2975C137.664 10.6302 136.709 10.2965 135.526 10.2965C133.766 10.2965 132.295 10.8273 131.112 11.889C129.959 12.9203 129.201 14.6038 128.837 16.9395ZM152.315 32.728C151.617 32.728 150.995 32.455 150.449 31.909C149.934 31.3327 149.676 30.635 149.676 29.816C149.676 28.997 149.949 28.2993 150.495 27.723C151.041 27.1467 151.663 26.8585 152.36 26.8585C153.119 26.8585 153.74 27.1467 154.226 27.723C154.741 28.2993 154.999 28.997 154.999 29.816C154.999 30.635 154.726 31.3327 154.18 31.909C153.634 32.455 153.012 32.728 152.315 32.728Z" fill="white"/>
</svg>
